<?xml version="1.0" encoding="UTF-8" standalone="no"?>
<!-- Created with Inkscape (http://www.inkscape.org/) -->

<svg
   width="128"
   height="128"
   viewBox="0 0 128 128"
   version="1.1"
   id="svg1"
   inkscape:version="1.3.2 (091e20ef0f, 2023-11-25)"
   sodipodi:docname="app.svg"
   xmlns:inkscape="http://www.inkscape.org/namespaces/inkscape"
   xmlns:sodipodi="http://sodipodi.sourceforge.net/DTD/sodipodi-0.dtd"
   xmlns="http://www.w3.org/2000/svg"
   xmlns:svg="http://www.w3.org/2000/svg">
  <sodipodi:namedview
     id="namedview1"
     pagecolor="#ffffff"
     bordercolor="#000000"
     borderopacity="0.25"
     inkscape:showpageshadow="2"
     inkscape:pageopacity="0.0"
     inkscape:pagecheckerboard="true"
     inkscape:deskcolor="#d1d1d1"
     inkscape:document-units="px"
     inkscape:zoom="5.6592748"
     inkscape:cx="40.994652"
     inkscape:cy="78.190231"
     inkscape:window-width="2560"
     inkscape:window-height="1371"
     inkscape:window-x="0"
     inkscape:window-y="0"
     inkscape:window-maximized="1"
     inkscape:current-layer="layer1" />
  <defs
     id="defs1">
    <clipPath
       id="clippath">
      <polygon
         class="cls-1"
         points="0,20 20,0 40,20 40,40 0,40 "
         id="polygon1" />
    </clipPath>
  </defs>
  <g
     inkscape:label="Layer 1"
     inkscape:groupmode="layer"
     id="layer1">
    <g
       class="cls-3"
       clip-path="url(#clippath)"
       id="g18"
       style="display:inline;fill:none;enable-background:new"
       transform="matrix(2.8,0,0,2.8,8,6.5405)">
      <g
         id="g17">
        <path
           class="cls-6"
           d="M 40,37.5 C 40,38.87 38.88,40 37.5,40 H 2.5 C 1.13,40 0,38.88 0,37.5 v -15 C 0,21.13 0.8,19.2 1.77,18.23 L 18.23,1.77 c 0.97,-0.97 2.56,-0.97 3.54,0 L 38.23,18.23 C 39.2,19.2 40,21.12 40,22.5 Z"
           id="path14"
           style="fill:#18bcf2" />
        <path
           class="cls-1"
           d="m 9.33,32.67 c -1.1,0 -2,-0.9 -2,-2 v -5.63 c 0,-1.1 0.64,-2.64 1.41,-3.41 l 9.84,-9.84 c 0.78,-0.78 2.05,-0.78 2.83,0 l 9.84,9.84 c 0.78,0.78 1.41,2.31 1.41,3.41 v 5.63 c 0,1.1 -0.9,2 -2,2 z"
           id="path15"
           style="fill:none" />
        <circle
           class="cls-4"
           cx="20"
           cy="14"
           r="2.6700001"
           id="circle15"
           style="fill:#f2f4f9;stroke:#f2f4f9;stroke-width:1.5px;stroke-miterlimit:10" />
        <circle
           class="cls-4"
           cx="30"
           cy="24.33"
           r="2.6700001"
           id="circle16"
           style="fill:#f2f4f9;stroke:#f2f4f9;stroke-width:1.5px;stroke-miterlimit:10" />
        <circle
           class="cls-4"
           cx="10"
           cy="30"
           r="2.6700001"
           id="circle17"
           style="fill:#f2f4f9;stroke:#f2f4f9;stroke-width:1.5px;stroke-miterlimit:10" />
        <polyline
           class="cls-2"
           points="20 13.98 20 40 10 30"
           id="polyline17"
           style="fill:none;stroke:#f2f4f9;stroke-width:3px;stroke-miterlimit:10" />
        <line
           class="cls-2"
           x1="30"
           y1="24.23"
           x2="20.120001"
           y2="34.110001"
           id="line17"
           style="fill:none;stroke:#f2f4f9;stroke-width:3px;stroke-miterlimit:10" />
      </g>
    </g>
  </g>
</svg>
